<mxfile host="65bd71144e">
    <diagram name="Page-1" id="edf60f1a-56cd-e834-aa8a-f176f3a09ee4">
        <mxGraphModel dx="2139" dy="1547" grid="1" gridSize="10" guides="1" tooltips="1" connect="1" arrows="1" fold="1" page="1" pageScale="1" pageWidth="1100" pageHeight="850" background="none" math="0" shadow="0">
            <root>
                <mxCell id="0"/>
                <mxCell id="1" parent="0"/>
                <mxCell id="547" value="" style="rounded=0;whiteSpace=wrap;html=1;fillColor=none;fontColor=#ffffff;strokeColor=#F78FD1;strokeWidth=3;" parent="1" vertex="1">
                    <mxGeometry x="830" y="-370" width="1220" height="2170" as="geometry"/>
                </mxCell>
                <mxCell id="466" value="" style="rounded=0;whiteSpace=wrap;html=1;fillColor=none;fontColor=#ffffff;strokeColor=#F75757;strokeWidth=3;" parent="1" vertex="1">
                    <mxGeometry x="-870" y="-360" width="1220" height="2070" as="geometry"/>
                </mxCell>
                <mxCell id="syWpEsedI9_Z4XTVDD5b-13" style="edgeStyle=orthogonalEdgeStyle;rounded=0;orthogonalLoop=1;jettySize=auto;html=1;entryX=0.5;entryY=0;entryDx=0;entryDy=0;" parent="1" source="syWpEsedI9_Z4XTVDD5b-3" target="syWpEsedI9_Z4XTVDD5b-4" edge="1">
                    <mxGeometry relative="1" as="geometry"/>
                </mxCell>
                <mxCell id="syWpEsedI9_Z4XTVDD5b-3" value="Explore house and introduce characters. Choose rooms. Go to bed." style="whiteSpace=wrap;html=1;" parent="1" vertex="1">
                    <mxGeometry x="440" y="-540" width="180" height="60" as="geometry"/>
                </mxCell>
                <mxCell id="467" style="edgeStyle=orthogonalEdgeStyle;rounded=1;html=1;entryX=0.5;entryY=0;entryDx=0;entryDy=0;" parent="1" source="syWpEsedI9_Z4XTVDD5b-4" target="syWpEsedI9_Z4XTVDD5b-14" edge="1">
                    <mxGeometry relative="1" as="geometry"/>
                </mxCell>
                <mxCell id="syWpEsedI9_Z4XTVDD5b-4" value="During breakfast, M discuss going shopping. Will B or L come along vs stay here and unpack?" style="whiteSpace=wrap;html=1;" parent="1" vertex="1">
                    <mxGeometry x="440" y="-440" width="180" height="60" as="geometry"/>
                </mxCell>
                <mxCell id="syWpEsedI9_Z4XTVDD5b-11" style="edgeStyle=orthogonalEdgeStyle;rounded=0;orthogonalLoop=1;jettySize=auto;html=1;entryX=0.5;entryY=0;entryDx=0;entryDy=0;" parent="1" source="syWpEsedI9_Z4XTVDD5b-7" target="syWpEsedI9_Z4XTVDD5b-10" edge="1">
                    <mxGeometry relative="1" as="geometry"/>
                </mxCell>
                <mxCell id="syWpEsedI9_Z4XTVDD5b-7" value="Start" style="rounded=1;whiteSpace=wrap;html=1;arcSize=50;" parent="1" vertex="1">
                    <mxGeometry x="500" y="-690" width="60" height="30" as="geometry"/>
                </mxCell>
                <mxCell id="syWpEsedI9_Z4XTVDD5b-12" style="edgeStyle=orthogonalEdgeStyle;rounded=0;orthogonalLoop=1;jettySize=auto;html=1;" parent="1" source="syWpEsedI9_Z4XTVDD5b-10" target="syWpEsedI9_Z4XTVDD5b-3" edge="1">
                    <mxGeometry relative="1" as="geometry"/>
                </mxCell>
                <mxCell id="syWpEsedI9_Z4XTVDD5b-10" value="Family arrives at house." style="whiteSpace=wrap;html=1;" parent="1" vertex="1">
                    <mxGeometry x="465" y="-620" width="130" height="40" as="geometry"/>
                </mxCell>
                <mxCell id="syWpEsedI9_Z4XTVDD5b-18" value="" style="edgeStyle=orthogonalEdgeStyle;rounded=0;orthogonalLoop=1;jettySize=auto;html=1;exitX=0;exitY=0.5;exitDx=0;exitDy=0;" parent="1" source="syWpEsedI9_Z4XTVDD5b-14" target="syWpEsedI9_Z4XTVDD5b-17" edge="1">
                    <mxGeometry relative="1" as="geometry">
                        <mxPoint x="320" y="-270" as="sourcePoint"/>
                    </mxGeometry>
                </mxCell>
                <mxCell id="syWpEsedI9_Z4XTVDD5b-20" style="edgeStyle=orthogonalEdgeStyle;rounded=0;orthogonalLoop=1;jettySize=auto;html=1;entryX=0;entryY=0.5;entryDx=0;entryDy=0;" parent="1" source="syWpEsedI9_Z4XTVDD5b-14" target="syWpEsedI9_Z4XTVDD5b-19" edge="1">
                    <mxGeometry relative="1" as="geometry"/>
                </mxCell>
                <mxCell id="syWpEsedI9_Z4XTVDD5b-14" value="Who stays home?" style="rhombus;whiteSpace=wrap;html=1;" parent="1" vertex="1">
                    <mxGeometry x="490" y="-310" width="80" height="80" as="geometry"/>
                </mxCell>
                <mxCell id="3" value="" style="edgeStyle=none;html=1;" parent="1" source="syWpEsedI9_Z4XTVDD5b-17" target="2" edge="1">
                    <mxGeometry relative="1" as="geometry"/>
                </mxCell>
                <mxCell id="syWpEsedI9_Z4XTVDD5b-17" value="B stays home.&lt;br&gt;L goes shopping." style="shape=hexagon;perimeter=hexagonPerimeter2;whiteSpace=wrap;html=1;fixedSize=1;" parent="1" vertex="1">
                    <mxGeometry x="-235" y="-310" width="120" height="80" as="geometry"/>
                </mxCell>
                <mxCell id="480" value="" style="edgeStyle=orthogonalEdgeStyle;rounded=1;html=1;" parent="1" source="syWpEsedI9_Z4XTVDD5b-19" target="478" edge="1">
                    <mxGeometry relative="1" as="geometry"/>
                </mxCell>
                <mxCell id="syWpEsedI9_Z4XTVDD5b-19" value="L stays home.&lt;br&gt;B goes shopping." style="shape=hexagon;perimeter=hexagonPerimeter2;whiteSpace=wrap;html=1;fixedSize=1;" parent="1" vertex="1">
                    <mxGeometry x="1400" y="-310" width="120" height="80" as="geometry"/>
                </mxCell>
                <mxCell id="5" value="" style="edgeStyle=none;html=1;" parent="1" source="2" target="4" edge="1">
                    <mxGeometry relative="1" as="geometry"/>
                </mxCell>
                <mxCell id="2" value="P and B unpacks stuff. Time skip. Both get worked up, sweaty. Both want to take a shower. Option for a bit of friendly sibling rivalry." style="whiteSpace=wrap;html=1;" parent="1" vertex="1">
                    <mxGeometry x="-285" y="-140" width="220" height="60" as="geometry"/>
                </mxCell>
                <mxCell id="7" value="" style="edgeStyle=none;html=1;" parent="1" source="4" target="6" edge="1">
                    <mxGeometry relative="1" as="geometry"/>
                </mxCell>
                <mxCell id="9" value="" style="edgeStyle=none;html=1;" parent="1" source="4" target="8" edge="1">
                    <mxGeometry relative="1" as="geometry"/>
                </mxCell>
                <mxCell id="4" value="B wants to shower first. Let her?" style="rhombus;whiteSpace=wrap;html=1;" parent="1" vertex="1">
                    <mxGeometry x="-235" y="-10" width="120" height="80" as="geometry"/>
                </mxCell>
                <mxCell id="11" value="" style="edgeStyle=none;html=1;" parent="1" source="6" target="10" edge="1">
                    <mxGeometry relative="1" as="geometry"/>
                </mxCell>
                <mxCell id="6" value="&quot;Not if I get there first!&quot;" style="shape=hexagon;perimeter=hexagonPerimeter2;whiteSpace=wrap;html=1;fixedSize=1;" parent="1" vertex="1">
                    <mxGeometry x="-435" y="-10" width="120" height="80" as="geometry"/>
                </mxCell>
                <mxCell id="77" value="" style="edgeStyle=none;html=1;" parent="1" source="8" target="76" edge="1">
                    <mxGeometry relative="1" as="geometry"/>
                </mxCell>
                <mxCell id="8" value="&quot;Sure, you can go first.&quot;" style="shape=hexagon;perimeter=hexagonPerimeter2;whiteSpace=wrap;html=1;fixedSize=1;" parent="1" vertex="1">
                    <mxGeometry x="175" y="-10" width="120" height="80" as="geometry"/>
                </mxCell>
                <mxCell id="45" style="edgeStyle=none;html=1;entryX=0.5;entryY=0;entryDx=0;entryDy=0;" parent="1" source="10" target="12" edge="1">
                    <mxGeometry relative="1" as="geometry"/>
                </mxCell>
                <mxCell id="10" value="P and B rush up the stairs." style="whiteSpace=wrap;html=1;" parent="1" vertex="1">
                    <mxGeometry x="-455" y="150" width="160" height="60" as="geometry"/>
                </mxCell>
                <mxCell id="79" style="edgeStyle=none;html=1;entryX=1;entryY=0.5;entryDx=0;entryDy=0;" parent="1" source="12" target="16" edge="1">
                    <mxGeometry relative="1" as="geometry"/>
                </mxCell>
                <mxCell id="81" style="edgeStyle=none;html=1;entryX=0;entryY=0.5;entryDx=0;entryDy=0;" parent="1" source="12" target="14" edge="1">
                    <mxGeometry relative="1" as="geometry"/>
                </mxCell>
                <mxCell id="12" value="Where do you run?" style="rhombus;whiteSpace=wrap;html=1;" parent="1" vertex="1">
                    <mxGeometry x="-435" y="290" width="120" height="80" as="geometry"/>
                </mxCell>
                <mxCell id="19" value="" style="edgeStyle=none;html=1;" parent="1" source="14" target="18" edge="1">
                    <mxGeometry relative="1" as="geometry"/>
                </mxCell>
                <mxCell id="14" value="To your room, get some clothes." style="shape=hexagon;perimeter=hexagonPerimeter2;whiteSpace=wrap;html=1;fixedSize=1;" parent="1" vertex="1">
                    <mxGeometry x="-245" y="290" width="120" height="80" as="geometry"/>
                </mxCell>
                <mxCell id="35" value="" style="edgeStyle=none;html=1;" parent="1" source="16" target="34" edge="1">
                    <mxGeometry relative="1" as="geometry"/>
                </mxCell>
                <mxCell id="16" value="Straight to the shower!" style="shape=hexagon;perimeter=hexagonPerimeter2;whiteSpace=wrap;html=1;fixedSize=1;" parent="1" vertex="1">
                    <mxGeometry x="-705" y="290" width="120" height="80" as="geometry"/>
                </mxCell>
                <mxCell id="23" value="" style="edgeStyle=none;html=1;" parent="1" source="18" target="22" edge="1">
                    <mxGeometry relative="1" as="geometry"/>
                </mxCell>
                <mxCell id="18" value="You pick up some new clothes, then head to the bathroom. B is already there, in the shower." style="whiteSpace=wrap;html=1;" parent="1" vertex="1">
                    <mxGeometry x="-275" y="425" width="180" height="60" as="geometry"/>
                </mxCell>
                <mxCell id="25" value="" style="edgeStyle=none;html=1;" parent="1" source="22" target="24" edge="1">
                    <mxGeometry relative="1" as="geometry"/>
                </mxCell>
                <mxCell id="22" value="You see B naked in the shower, and look away." style="whiteSpace=wrap;html=1;" parent="1" vertex="1">
                    <mxGeometry x="-255" y="540" width="140" height="45" as="geometry"/>
                </mxCell>
                <mxCell id="33" style="edgeStyle=none;html=1;entryX=0.5;entryY=0;entryDx=0;entryDy=0;" parent="1" source="24" target="32" edge="1">
                    <mxGeometry relative="1" as="geometry"/>
                </mxCell>
                <mxCell id="24" value="&lt;span style=&quot;color: rgb(240 , 240 , 240) ; font-family: &amp;#34;helvetica&amp;#34; ; font-size: 12px ; font-style: normal ; font-weight: 400 ; letter-spacing: normal ; text-align: center ; text-indent: 0px ; text-transform: none ; word-spacing: 0px ; background-color: rgb(42 , 42 , 42) ; display: inline ; float: none&quot;&gt;&quot;Jesus! How'd you get here so quick!?&quot;&lt;/span&gt;&lt;br style=&quot;color: rgb(240 , 240 , 240) ; font-family: &amp;#34;helvetica&amp;#34; ; font-size: 12px ; font-style: normal ; font-weight: 400 ; letter-spacing: normal ; text-align: center ; text-indent: 0px ; text-transform: none ; word-spacing: 0px ; background-color: rgb(42 , 42 , 42)&quot;&gt;&lt;span style=&quot;color: rgb(240 , 240 , 240) ; font-family: &amp;#34;helvetica&amp;#34; ; font-size: 12px ; font-style: normal ; font-weight: 400 ; letter-spacing: normal ; text-align: center ; text-indent: 0px ; text-transform: none ; word-spacing: 0px ; background-color: rgb(42 , 42 , 42) ; display: inline ; float: none&quot;&gt;&quot;Unlike you, who ran to your room, I just went straight for the shower. Dummy.&quot;&lt;/span&gt;&lt;br&gt;" style="rounded=1;whiteSpace=wrap;html=1;" parent="1" vertex="1">
                    <mxGeometry x="-305" y="650" width="240" height="60" as="geometry"/>
                </mxCell>
                <mxCell id="58" value="" style="edgeStyle=none;html=1;" parent="1" source="32" target="57" edge="1">
                    <mxGeometry relative="1" as="geometry"/>
                </mxCell>
                <mxCell id="32" value="B has won, you admit defeat and have to wait." style="whiteSpace=wrap;html=1;" parent="1" vertex="1">
                    <mxGeometry x="-255" y="760" width="140" height="40" as="geometry"/>
                </mxCell>
                <mxCell id="37" value="" style="edgeStyle=none;html=1;" parent="1" source="34" target="36" edge="1">
                    <mxGeometry relative="1" as="geometry"/>
                </mxCell>
                <mxCell id="34" value="You undress and hop into the shower." style="whiteSpace=wrap;html=1;" parent="1" vertex="1">
                    <mxGeometry x="-705" y="420" width="120" height="40" as="geometry"/>
                </mxCell>
                <mxCell id="39" value="" style="edgeStyle=none;html=1;" parent="1" source="36" target="38" edge="1">
                    <mxGeometry relative="1" as="geometry"/>
                </mxCell>
                <mxCell id="36" value="Shorty after, B comes running into the bathroom, sees you." style="whiteSpace=wrap;html=1;" parent="1" vertex="1">
                    <mxGeometry x="-735" y="510" width="180" height="40" as="geometry"/>
                </mxCell>
                <mxCell id="41" value="" style="edgeStyle=none;html=1;" parent="1" source="38" target="40" edge="1">
                    <mxGeometry relative="1" as="geometry"/>
                </mxCell>
                <mxCell id="38" value="&quot;Ah! How... *breath* How are you already here?" style="rounded=1;whiteSpace=wrap;html=1;" parent="1" vertex="1">
                    <mxGeometry x="-715" y="590" width="140" height="60" as="geometry"/>
                </mxCell>
                <mxCell id="47" value="" style="edgeStyle=none;html=1;" parent="1" source="40" target="46" edge="1">
                    <mxGeometry relative="1" as="geometry"/>
                </mxCell>
                <mxCell id="40" value="&quot;unlike you...&quot; &quot;I ran straight here. Haha! :P&quot;" style="whiteSpace=wrap;html=1;rounded=1;" parent="1" vertex="1">
                    <mxGeometry x="-705" y="690" width="120" height="60" as="geometry"/>
                </mxCell>
                <mxCell id="53" value="" style="edgeStyle=none;html=1;entryX=0.5;entryY=0;entryDx=0;entryDy=0;" parent="1" source="46" target="54" edge="1">
                    <mxGeometry relative="1" as="geometry">
                        <mxPoint x="-645" y="940" as="targetPoint"/>
                    </mxGeometry>
                </mxCell>
                <mxCell id="46" value="&quot;Oh yeah, smarty pants? Weel, have a nice shower, and good luck drying yourself off without any towels!&quot;" style="whiteSpace=wrap;html=1;rounded=1;" parent="1" vertex="1">
                    <mxGeometry x="-765" y="800" width="240" height="60" as="geometry"/>
                </mxCell>
                <mxCell id="61" value="" style="edgeStyle=none;html=1;" parent="1" source="54" target="60" edge="1">
                    <mxGeometry relative="1" as="geometry"/>
                </mxCell>
                <mxCell id="54" value="B takes all the towels and walks away laughing." style="whiteSpace=wrap;html=1;" parent="1" vertex="1">
                    <mxGeometry x="-725" y="910" width="160" height="40" as="geometry"/>
                </mxCell>
                <mxCell id="83" value="" style="edgeStyle=none;html=1;" parent="1" source="55" target="82" edge="1">
                    <mxGeometry relative="1" as="geometry"/>
                </mxCell>
                <mxCell id="55" value="You go to your room to wait." style="whiteSpace=wrap;html=1;" parent="1" vertex="1">
                    <mxGeometry x="-245" y="920" width="120" height="60" as="geometry"/>
                </mxCell>
                <mxCell id="59" style="edgeStyle=none;html=1;" parent="1" source="57" target="55" edge="1">
                    <mxGeometry relative="1" as="geometry"/>
                </mxCell>
                <mxCell id="57" value="&quot;Fine, you win this time ;) &quot;&lt;br&gt;Tell me when you're done, will ya´?" style="rounded=1;whiteSpace=wrap;html=1;" parent="1" vertex="1">
                    <mxGeometry x="-295" y="840" width="220" height="40" as="geometry"/>
                </mxCell>
                <mxCell id="63" value="" style="edgeStyle=none;html=1;" parent="1" source="60" target="62" edge="1">
                    <mxGeometry relative="1" as="geometry"/>
                </mxCell>
                <mxCell id="60" value="After you are done, you step on your old clothes to dry off your feet, and hold the shirt(?) to cover yourself. You go to B's room." style="whiteSpace=wrap;html=1;" parent="1" vertex="1">
                    <mxGeometry x="-775" y="990" width="260" height="60" as="geometry"/>
                </mxCell>
                <mxCell id="65" value="" style="edgeStyle=none;html=1;" parent="1" source="62" target="64" edge="1">
                    <mxGeometry relative="1" as="geometry"/>
                </mxCell>
                <mxCell id="62" value="You push open her door and walk inside. She's sitting on her bed, grinning." style="whiteSpace=wrap;html=1;" parent="1" vertex="1">
                    <mxGeometry x="-765" y="1100" width="240" height="40" as="geometry"/>
                </mxCell>
                <mxCell id="73" value="" style="edgeStyle=none;html=1;" parent="1" source="64" target="72" edge="1">
                    <mxGeometry relative="1" as="geometry"/>
                </mxCell>
                <mxCell id="64" value="&quot;Oh my, P, coming in to your sister's room naked. Have you no shame?&quot; ;)" style="rounded=1;whiteSpace=wrap;html=1;" parent="1" vertex="1">
                    <mxGeometry x="-755" y="1190" width="220" height="40" as="geometry"/>
                </mxCell>
                <mxCell id="71" value="" style="edgeStyle=none;html=1;" parent="1" source="68" target="70" edge="1">
                    <mxGeometry relative="1" as="geometry"/>
                </mxCell>
                <mxCell id="68" value="You say nothing more, walk up to B and grab a towel next to her. Turn around and walk out." style="whiteSpace=wrap;html=1;" parent="1" vertex="1">
                    <mxGeometry x="-775" y="1330" width="260" height="40" as="geometry"/>
                </mxCell>
                <mxCell id="87" value="" style="edgeStyle=none;html=1;" parent="1" source="70" target="86" edge="1">
                    <mxGeometry relative="1" as="geometry"/>
                </mxCell>
                <mxCell id="70" value="B grins, smiles or smirks, laughing" style="whiteSpace=wrap;html=1;" parent="1" vertex="1">
                    <mxGeometry x="-705" y="1410" width="120" height="60" as="geometry"/>
                </mxCell>
                <mxCell id="75" style="edgeStyle=none;html=1;" parent="1" source="72" target="68" edge="1">
                    <mxGeometry relative="1" as="geometry"/>
                </mxCell>
                <mxCell id="72" value="&quot;Funny.&quot;" style="whiteSpace=wrap;html=1;rounded=1;" parent="1" vertex="1">
                    <mxGeometry x="-705" y="1260" width="120" height="30" as="geometry"/>
                </mxCell>
                <mxCell id="85" style="edgeStyle=none;html=1;entryX=0.5;entryY=0;entryDx=0;entryDy=0;" parent="1" source="76" target="78" edge="1">
                    <mxGeometry relative="1" as="geometry"/>
                </mxCell>
                <mxCell id="76" value="&quot;Alright, you go first. Tell me when you're done, will ya'?&quot;" style="rounded=1;whiteSpace=wrap;html=1;" parent="1" vertex="1">
                    <mxGeometry x="175" y="160" width="120" height="60" as="geometry"/>
                </mxCell>
                <mxCell id="84" style="edgeStyle=none;html=1;entryX=1;entryY=0.5;entryDx=0;entryDy=0;" parent="1" source="78" target="82" edge="1">
                    <mxGeometry relative="1" as="geometry"/>
                </mxCell>
                <mxCell id="78" value="You go to your room to wait.&amp;nbsp;" style="whiteSpace=wrap;html=1;" parent="1" vertex="1">
                    <mxGeometry x="175" y="920" width="120" height="60" as="geometry"/>
                </mxCell>
                <mxCell id="89" value="" style="edgeStyle=none;html=1;" parent="1" source="82" target="88" edge="1">
                    <mxGeometry relative="1" as="geometry"/>
                </mxCell>
                <mxCell id="82" value="B comes to your room wearing a towel, to tell you she's done in the shower." style="whiteSpace=wrap;html=1;" parent="1" vertex="1">
                    <mxGeometry x="-65" y="920" width="160" height="60" as="geometry"/>
                </mxCell>
                <mxCell id="91" value="" style="edgeStyle=none;html=1;" parent="1" source="86" target="90" edge="1">
                    <mxGeometry relative="1" as="geometry"/>
                </mxCell>
                <mxCell id="86" value="You go back to the bathroom and finish up." style="whiteSpace=wrap;html=1;" parent="1" vertex="1">
                    <mxGeometry x="-715" y="1550" width="140" height="50" as="geometry"/>
                </mxCell>
                <mxCell id="94" style="edgeStyle=none;html=1;entryX=0.5;entryY=0;entryDx=0;entryDy=0;" parent="1" source="88" target="90" edge="1">
                    <mxGeometry relative="1" as="geometry"/>
                </mxCell>
                <mxCell id="88" value="You go to the bathroom and take a shower." style="whiteSpace=wrap;html=1;" parent="1" vertex="1">
                    <mxGeometry x="-55" y="1060" width="140" height="50" as="geometry"/>
                </mxCell>
                <mxCell id="549" style="edgeStyle=orthogonalEdgeStyle;rounded=1;html=1;entryX=0;entryY=0.5;entryDx=0;entryDy=0;" parent="1" source="90" target="548" edge="1">
                    <mxGeometry relative="1" as="geometry"/>
                </mxCell>
                <mxCell id="90" value="Some time later, M and L returns." style="whiteSpace=wrap;html=1;strokeColor=#F0F0F0;" parent="1" vertex="1">
                    <mxGeometry x="-45" y="1545" width="120" height="60" as="geometry"/>
                </mxCell>
                <mxCell id="473" value="" style="edgeStyle=orthogonalEdgeStyle;rounded=1;html=1;" parent="1" source="468" target="472" edge="1">
                    <mxGeometry relative="1" as="geometry"/>
                </mxCell>
                <mxCell id="468" value="A bit later, L complains about being tired and sweaty." style="whiteSpace=wrap;html=1;" parent="1" vertex="1">
                    <mxGeometry x="1370" y="-20" width="180" height="40" as="geometry"/>
                </mxCell>
                <mxCell id="475" value="" style="edgeStyle=orthogonalEdgeStyle;rounded=1;html=1;" parent="1" source="472" target="474" edge="1">
                    <mxGeometry relative="1" as="geometry"/>
                </mxCell>
                <mxCell id="477" value="" style="edgeStyle=orthogonalEdgeStyle;rounded=1;html=1;" parent="1" source="472" target="476" edge="1">
                    <mxGeometry relative="1" as="geometry"/>
                </mxCell>
                <mxCell id="472" value="Be nice?&amp;nbsp;" style="rhombus;whiteSpace=wrap;html=1;" parent="1" vertex="1">
                    <mxGeometry x="1420" y="130" width="80" height="80" as="geometry"/>
                </mxCell>
                <mxCell id="483" value="" style="edgeStyle=orthogonalEdgeStyle;rounded=1;html=1;" parent="1" source="474" target="482" edge="1">
                    <mxGeometry relative="1" as="geometry"/>
                </mxCell>
                <mxCell id="474" value="Offer L to finish the last unpacking by yourself, so she can take a shower." style="whiteSpace=wrap;html=1;" parent="1" vertex="1">
                    <mxGeometry x="1140" y="140" width="120" height="60" as="geometry"/>
                </mxCell>
                <mxCell id="507" value="" style="edgeStyle=orthogonalEdgeStyle;rounded=1;html=1;" parent="1" source="476" target="506" edge="1">
                    <mxGeometry relative="1" as="geometry"/>
                </mxCell>
                <mxCell id="476" value="Hey, the quicker we get done the sooner you can take a shower." style="whiteSpace=wrap;html=1;" parent="1" vertex="1">
                    <mxGeometry x="1680" y="140" width="120" height="60" as="geometry"/>
                </mxCell>
                <mxCell id="481" value="" style="edgeStyle=orthogonalEdgeStyle;rounded=1;html=1;" parent="1" source="478" target="468" edge="1">
                    <mxGeometry relative="1" as="geometry"/>
                </mxCell>
                <mxCell id="478" value="You and L start unpacking." style="whiteSpace=wrap;html=1;" parent="1" vertex="1">
                    <mxGeometry x="1390" y="-150" width="140" height="40" as="geometry"/>
                </mxCell>
                <mxCell id="485" value="" style="edgeStyle=orthogonalEdgeStyle;rounded=1;html=1;" parent="1" source="482" target="484" edge="1">
                    <mxGeometry relative="1" as="geometry"/>
                </mxCell>
                <mxCell id="482" value="L thanks you, and walks off." style="whiteSpace=wrap;html=1;" parent="1" vertex="1">
                    <mxGeometry x="1140" y="280" width="120" height="60" as="geometry"/>
                </mxCell>
                <mxCell id="487" value="" style="edgeStyle=orthogonalEdgeStyle;rounded=1;html=1;" parent="1" source="484" target="486" edge="1">
                    <mxGeometry relative="1" as="geometry"/>
                </mxCell>
                <mxCell id="484" value="Eventually, you are done, and are also looking forward to a shower. You get a change of clothes and go into the bathroom." style="whiteSpace=wrap;html=1;" parent="1" vertex="1">
                    <mxGeometry x="1090" y="420" width="220" height="60" as="geometry"/>
                </mxCell>
                <mxCell id="489" value="" style="edgeStyle=orthogonalEdgeStyle;rounded=1;html=1;" parent="1" source="486" target="488" edge="1">
                    <mxGeometry relative="1" as="geometry"/>
                </mxCell>
                <mxCell id="486" value="You start showering. You face the wall, and do not notice that L is still in the bath tub, dozed off." style="whiteSpace=wrap;html=1;" parent="1" vertex="1">
                    <mxGeometry x="1070" y="560" width="260" height="50" as="geometry"/>
                </mxCell>
                <mxCell id="491" value="" style="edgeStyle=orthogonalEdgeStyle;rounded=1;html=1;" parent="1" source="488" target="490" edge="1">
                    <mxGeometry relative="1" as="geometry"/>
                </mxCell>
                <mxCell id="488" value="L wakes up, realises what's happening." style="whiteSpace=wrap;html=1;" parent="1" vertex="1">
                    <mxGeometry x="1140" y="685" width="120" height="45" as="geometry"/>
                </mxCell>
                <mxCell id="493" value="" style="edgeStyle=orthogonalEdgeStyle;rounded=1;html=1;" parent="1" source="490" target="492" edge="1">
                    <mxGeometry relative="1" as="geometry"/>
                </mxCell>
                <mxCell id="490" value="&quot;Uh, excuse me!? What are you doing!?&quot;" style="rounded=1;whiteSpace=wrap;html=1;" parent="1" vertex="1">
                    <mxGeometry x="1130" y="802.5" width="140" height="47.5" as="geometry"/>
                </mxCell>
                <mxCell id="503" value="" style="edgeStyle=orthogonalEdgeStyle;rounded=1;html=1;" parent="1" source="492" target="502" edge="1">
                    <mxGeometry relative="1" as="geometry"/>
                </mxCell>
                <mxCell id="492" value="You are cought off guard and scared." style="rounded=1;whiteSpace=wrap;html=1;" parent="1" vertex="1">
                    <mxGeometry x="1100" y="923.75" width="200" height="26.25" as="geometry"/>
                </mxCell>
                <mxCell id="497" value="" style="edgeStyle=orthogonalEdgeStyle;rounded=1;html=1;" parent="1" source="494" target="496" edge="1">
                    <mxGeometry relative="1" as="geometry"/>
                </mxCell>
                <mxCell id="494" value="&quot;No, what are YOU doing here!? I'm in the fucking bath!&quot;" style="rounded=1;whiteSpace=wrap;html=1;" parent="1" vertex="1">
                    <mxGeometry x="1110" y="1093.12" width="180" height="46.88" as="geometry"/>
                </mxCell>
                <mxCell id="501" value="" style="edgeStyle=orthogonalEdgeStyle;rounded=1;html=1;" parent="1" source="496" target="500" edge="1">
                    <mxGeometry relative="1" as="geometry"/>
                </mxCell>
                <mxCell id="496" value="&quot;I didn't know that; I thought you were in your room. You went to take a shower like over an hour ago!&quot;" style="rounded=1;whiteSpace=wrap;html=1;" parent="1" vertex="1">
                    <mxGeometry x="1060" y="1180" width="280" height="50" as="geometry"/>
                </mxCell>
                <mxCell id="543" value="" style="edgeStyle=orthogonalEdgeStyle;rounded=1;html=1;" parent="1" source="500" target="542" edge="1">
                    <mxGeometry relative="1" as="geometry"/>
                </mxCell>
                <mxCell id="500" value="... Fill out dialogue ..." style="whiteSpace=wrap;html=1;" parent="1" vertex="1">
                    <mxGeometry x="1140" y="1275" width="120" height="45" as="geometry"/>
                </mxCell>
                <mxCell id="505" style="edgeStyle=orthogonalEdgeStyle;rounded=1;html=1;entryX=0.5;entryY=0;entryDx=0;entryDy=0;" parent="1" source="502" target="494" edge="1">
                    <mxGeometry relative="1" as="geometry"/>
                </mxCell>
                <mxCell id="502" value="&lt;span style=&quot;color: rgb(240 , 240 , 240) ; font-family: &amp;#34;helvetica&amp;#34; ; font-size: 12px ; font-style: normal ; font-weight: 400 ; letter-spacing: normal ; text-align: center ; text-indent: 0px ; text-transform: none ; word-spacing: 0px ; background-color: rgb(42 , 42 , 42) ; display: inline ; float: none&quot;&gt;&quot;Wha! Jesus Christ! L? You scared the shit out of me. What are you doing here!?&quot;&lt;/span&gt;&lt;br&gt;" style="rounded=1;whiteSpace=wrap;html=1;" parent="1" vertex="1">
                    <mxGeometry x="1120" y="990" width="160" height="60" as="geometry"/>
                </mxCell>
                <mxCell id="509" value="" style="edgeStyle=orthogonalEdgeStyle;rounded=1;html=1;" parent="1" source="506" target="508" edge="1">
                    <mxGeometry relative="1" as="geometry"/>
                </mxCell>
                <mxCell id="506" value="You finish together." style="whiteSpace=wrap;html=1;" parent="1" vertex="1">
                    <mxGeometry x="1680" y="290" width="120" height="40" as="geometry"/>
                </mxCell>
                <mxCell id="511" value="" style="edgeStyle=orthogonalEdgeStyle;rounded=1;html=1;" parent="1" source="508" target="510" edge="1">
                    <mxGeometry relative="1" as="geometry"/>
                </mxCell>
                <mxCell id="508" value="You offer L to take a shower first. She declines:" style="whiteSpace=wrap;html=1;" parent="1" vertex="1">
                    <mxGeometry x="1660" y="400" width="160" height="50" as="geometry"/>
                </mxCell>
                <mxCell id="513" value="" style="edgeStyle=orthogonalEdgeStyle;rounded=1;html=1;" parent="1" source="510" target="512" edge="1">
                    <mxGeometry relative="1" as="geometry"/>
                </mxCell>
                <mxCell id="510" value="&quot;Actually, I feel like taking a bath instead, so I might be a while. You can go first." style="rounded=1;whiteSpace=wrap;html=1;" parent="1" vertex="1">
                    <mxGeometry x="1630" y="525" width="220" height="55" as="geometry"/>
                </mxCell>
                <mxCell id="515" value="" style="edgeStyle=orthogonalEdgeStyle;rounded=1;html=1;" parent="1" source="512" target="514" edge="1">
                    <mxGeometry relative="1" as="geometry"/>
                </mxCell>
                <mxCell id="512" value="&quot;Alright, thanks. I'll be quick. 10 minutes, tops.&quot;" style="rounded=1;whiteSpace=wrap;html=1;" parent="1" vertex="1">
                    <mxGeometry x="1660" y="657.5" width="160" height="32.5" as="geometry"/>
                </mxCell>
                <mxCell id="517" value="" style="edgeStyle=orthogonalEdgeStyle;rounded=1;html=1;" parent="1" source="514" target="516" edge="1">
                    <mxGeometry relative="1" as="geometry"/>
                </mxCell>
                <mxCell id="514" value="Jokingly: &quot;I'll hold you to that. In 10 minutes I'm walking in on you, so you'd better be finished!&quot;" style="rounded=1;whiteSpace=wrap;html=1;" parent="1" vertex="1">
                    <mxGeometry x="1640" y="756.25" width="200" height="60" as="geometry"/>
                </mxCell>
                <mxCell id="521" value="" style="edgeStyle=orthogonalEdgeStyle;rounded=1;html=1;" parent="1" source="516" target="520" edge="1">
                    <mxGeometry relative="1" as="geometry"/>
                </mxCell>
                <mxCell id="516" value="&quot;Oh, I better hurry then." style="rounded=1;whiteSpace=wrap;html=1;" parent="1" vertex="1">
                    <mxGeometry x="1660" y="896.25" width="160" height="33.75" as="geometry"/>
                </mxCell>
                <mxCell id="523" value="" style="edgeStyle=orthogonalEdgeStyle;rounded=1;html=1;" parent="1" source="520" target="522" edge="1">
                    <mxGeometry relative="1" as="geometry"/>
                </mxCell>
                <mxCell id="520" value="You hurry away. Cut to you in the shower. L knocks on the door." style="whiteSpace=wrap;html=1;" parent="1" vertex="1">
                    <mxGeometry x="1630" y="997.5" width="220" height="45" as="geometry"/>
                </mxCell>
                <mxCell id="532" value="" style="edgeStyle=orthogonalEdgeStyle;rounded=1;html=1;" parent="1" source="522" target="530" edge="1">
                    <mxGeometry relative="1" as="geometry"/>
                </mxCell>
                <mxCell id="522" value="&quot;Just one minute left, P!&quot;" style="rounded=1;whiteSpace=wrap;html=1;" parent="1" vertex="1">
                    <mxGeometry x="1660" y="1085" width="160" height="25" as="geometry"/>
                </mxCell>
                <mxCell id="536" value="" style="edgeStyle=orthogonalEdgeStyle;rounded=1;html=1;" parent="1" source="530" target="535" edge="1">
                    <mxGeometry relative="1" as="geometry"/>
                </mxCell>
                <mxCell id="530" value="&lt;span&gt;You hurry to finish up. L says &quot;times up, I'm coming in&quot;, just as you open the door and step out. She is waiting outside, wearing a towel.&amp;nbsp;&lt;/span&gt;" style="whiteSpace=wrap;html=1;" parent="1" vertex="1">
                    <mxGeometry x="1610" y="1170" width="260" height="60" as="geometry"/>
                </mxCell>
                <mxCell id="541" style="edgeStyle=orthogonalEdgeStyle;rounded=1;html=1;entryX=1;entryY=0.5;entryDx=0;entryDy=0;" parent="1" source="533" target="540" edge="1">
                    <mxGeometry relative="1" as="geometry"/>
                </mxCell>
                <mxCell id="533" value="You go back to your room." style="whiteSpace=wrap;html=1;" parent="1" vertex="1">
                    <mxGeometry x="1680" y="1680" width="120" height="60" as="geometry"/>
                </mxCell>
                <mxCell id="538" value="" style="edgeStyle=orthogonalEdgeStyle;rounded=1;html=1;" parent="1" source="535" target="537" edge="1">
                    <mxGeometry relative="1" as="geometry"/>
                </mxCell>
                <mxCell id="535" value="&#10;&#10;&lt;span style=&quot;color: rgb(240, 240, 240); font-family: helvetica; font-size: 12px; font-style: normal; font-weight: 400; letter-spacing: normal; text-align: center; text-indent: 0px; text-transform: none; word-spacing: 0px; background-color: rgb(42, 42, 42); display: inline; float: none;&quot;&gt;&quot;Oh, just in time, well done.&quot;&lt;/span&gt;&#10;&#10;" style="rounded=1;whiteSpace=wrap;html=1;" parent="1" vertex="1">
                    <mxGeometry x="1650" y="1290" width="180" height="30" as="geometry"/>
                </mxCell>
                <mxCell id="539" value="" style="edgeStyle=orthogonalEdgeStyle;rounded=1;html=1;" parent="1" source="537" target="533" edge="1">
                    <mxGeometry relative="1" as="geometry"/>
                </mxCell>
                <mxCell id="537" value="&quot;All yours, sis.&quot;" style="rounded=1;whiteSpace=wrap;html=1;" parent="1" vertex="1">
                    <mxGeometry x="1680" y="1360" width="120" height="30" as="geometry"/>
                </mxCell>
                <mxCell id="550" style="edgeStyle=orthogonalEdgeStyle;rounded=1;html=1;entryX=1;entryY=0.5;entryDx=0;entryDy=0;" parent="1" source="540" target="548" edge="1">
                    <mxGeometry relative="1" as="geometry"/>
                </mxCell>
                <mxCell id="540" value="Some time later, M and B returns." style="whiteSpace=wrap;html=1;" parent="1" vertex="1">
                    <mxGeometry x="1140" y="1680" width="120" height="60" as="geometry"/>
                </mxCell>
                <mxCell id="545" value="" style="edgeStyle=orthogonalEdgeStyle;rounded=1;html=1;" parent="1" source="542" target="544" edge="1">
                    <mxGeometry relative="1" as="geometry"/>
                </mxCell>
                <mxCell id="542" value="You stop your shower, cover up with a towel and step outside. After a couple of minutes, L comes out wearing a towel." style="whiteSpace=wrap;html=1;" parent="1" vertex="1">
                    <mxGeometry x="1030" y="1395" width="340" height="45" as="geometry"/>
                </mxCell>
                <mxCell id="546" value="" style="edgeStyle=orthogonalEdgeStyle;rounded=1;html=1;" parent="1" source="544" target="540" edge="1">
                    <mxGeometry relative="1" as="geometry"/>
                </mxCell>
                <mxCell id="544" value="You apologise for before, explaining that you really didn't know that she was in there. She accepts, and leaves. You go inside and finish your shower. Then head to your room.&amp;nbsp;" style="whiteSpace=wrap;html=1;" parent="1" vertex="1">
                    <mxGeometry x="1060" y="1512.5" width="280" height="60" as="geometry"/>
                </mxCell>
                <mxCell id="552" value="" style="edgeStyle=orthogonalEdgeStyle;rounded=1;html=1;" parent="1" source="548" target="551" edge="1">
                    <mxGeometry relative="1" as="geometry"/>
                </mxCell>
                <mxCell id="548" value="You all meet in the kitchen, to put away grocerices and talk for a bit." style="whiteSpace=wrap;html=1;strokeColor=#F0F0F0;strokeWidth=1;fillColor=none;" parent="1" vertex="1">
                    <mxGeometry x="450" y="1900" width="220" height="60" as="geometry"/>
                </mxCell>
                <mxCell id="556" value="" style="edgeStyle=orthogonalEdgeStyle;rounded=1;html=1;" parent="1" source="551" target="555" edge="1">
                    <mxGeometry relative="1" as="geometry"/>
                </mxCell>
                <mxCell id="551" value="You decide to check out the yard and surrounding area together." style="whiteSpace=wrap;html=1;fillColor=none;strokeColor=#F0F0F0;strokeWidth=1;" parent="1" vertex="1">
                    <mxGeometry x="450" y="2040" width="220" height="60" as="geometry"/>
                </mxCell>
                <mxCell id="568" style="edgeStyle=orthogonalEdgeStyle;rounded=1;html=1;exitX=0.5;exitY=1;exitDx=0;exitDy=0;" parent="1" source="553" target="561" edge="1">
                    <mxGeometry relative="1" as="geometry"/>
                </mxCell>
                <mxCell id="553" value="You find a jacuzzi behind the house. Looks worse for wear, but it would be cool if you could get it to work." style="whiteSpace=wrap;html=1;strokeColor=#F0F0F0;strokeWidth=1;fillColor=none;" parent="1" vertex="1">
                    <mxGeometry x="240" y="2280" width="200" height="60" as="geometry"/>
                </mxCell>
                <mxCell id="569" style="edgeStyle=orthogonalEdgeStyle;rounded=1;html=1;exitX=0.5;exitY=1;exitDx=0;exitDy=0;entryX=0.5;entryY=0;entryDx=0;entryDy=0;" parent="1" source="554" target="561" edge="1">
                    <mxGeometry relative="1" as="geometry"/>
                </mxCell>
                <mxCell id="554" value="M mentions that there should be a lake over in that direction." style="whiteSpace=wrap;html=1;strokeColor=#F0F0F0;strokeWidth=1;fillColor=none;" parent="1" vertex="1">
                    <mxGeometry x="690" y="2280" width="140" height="60" as="geometry"/>
                </mxCell>
                <mxCell id="558" value="" style="edgeStyle=orthogonalEdgeStyle;rounded=1;html=1;" parent="1" source="555" target="557" edge="1">
                    <mxGeometry relative="1" as="geometry"/>
                </mxCell>
                <mxCell id="559" style="edgeStyle=orthogonalEdgeStyle;rounded=1;html=1;entryX=0.5;entryY=0;entryDx=0;entryDy=0;" parent="1" source="555" target="553" edge="1">
                    <mxGeometry relative="1" as="geometry"/>
                </mxCell>
                <mxCell id="560" style="edgeStyle=orthogonalEdgeStyle;rounded=1;html=1;entryX=0.5;entryY=0;entryDx=0;entryDy=0;" parent="1" source="555" target="554" edge="1">
                    <mxGeometry relative="1" as="geometry"/>
                </mxCell>
                <mxCell id="555" value="You find:" style="whiteSpace=wrap;html=1;fillColor=none;strokeColor=#F0F0F0;strokeWidth=1;" parent="1" vertex="1">
                    <mxGeometry x="520" y="2150" width="80" height="40" as="geometry"/>
                </mxCell>
                <mxCell id="570" value="" style="edgeStyle=orthogonalEdgeStyle;rounded=1;html=1;" parent="1" source="557" target="561" edge="1">
                    <mxGeometry relative="1" as="geometry"/>
                </mxCell>
                <mxCell id="557" value="A large field of grass, stretching further than you can see, with forest off to the side." style="whiteSpace=wrap;html=1;strokeColor=#F0F0F0;strokeWidth=1;fillColor=none;" parent="1" vertex="1">
                    <mxGeometry x="470" y="2280" width="180" height="60" as="geometry"/>
                </mxCell>
                <mxCell id="563" value="" style="edgeStyle=orthogonalEdgeStyle;rounded=1;html=1;" parent="1" source="561" target="562" edge="1">
                    <mxGeometry relative="1" as="geometry"/>
                </mxCell>
                <mxCell id="561" value="Hours later, you get back to the house and get some time to yourself." style="whiteSpace=wrap;html=1;strokeColor=#F0F0F0;strokeWidth=1;fillColor=none;" parent="1" vertex="1">
                    <mxGeometry x="450" y="2470" width="220" height="50" as="geometry"/>
                </mxCell>
                <mxCell id="574" value="" style="edgeStyle=orthogonalEdgeStyle;rounded=1;html=1;" parent="1" source="562" target="573" edge="1">
                    <mxGeometry relative="1" as="geometry"/>
                </mxCell>
                <mxCell id="562" value="&lt;span style=&quot;color: rgb(240 , 240 , 240) ; font-family: &amp;#34;helvetica&amp;#34; ; font-size: 12px ; font-style: normal ; font-weight: 400 ; letter-spacing: normal ; text-align: center ; text-indent: 0px ; text-transform: none ; word-spacing: 0px ; background-color: rgb(42 , 42 , 42) ; display: inline ; float: none&quot;&gt;&lt;span&gt;You play&amp;nbsp;&lt;/span&gt;around with your phone for a while, noticing that the reception is pretty bad.&lt;/span&gt;" style="whiteSpace=wrap;html=1;fillColor=none;strokeColor=#F0F0F0;strokeWidth=1;" parent="1" vertex="1">
                    <mxGeometry x="470" y="2595" width="180" height="60" as="geometry"/>
                </mxCell>
                <mxCell id="571" value="M starts checking out her computer" style="shape=process;whiteSpace=wrap;html=1;backgroundOutline=1;strokeColor=#F0F0F0;strokeWidth=1;fillColor=none;" parent="1" vertex="1">
                    <mxGeometry x="810" y="2450" width="160" height="60" as="geometry"/>
                </mxCell>
                <mxCell id="572" value="" style="endArrow=none;dashed=1;html=1;dashPattern=1 3;strokeWidth=2;rounded=1;entryX=0;entryY=0.5;entryDx=0;entryDy=0;exitX=1;exitY=0.5;exitDx=0;exitDy=0;" parent="1" source="561" target="571" edge="1">
                    <mxGeometry width="50" height="50" relative="1" as="geometry">
                        <mxPoint x="670" y="2420" as="sourcePoint"/>
                        <mxPoint x="720" y="2370" as="targetPoint"/>
                    </mxGeometry>
                </mxCell>
                <mxCell id="577" style="edgeStyle=orthogonalEdgeStyle;rounded=1;html=1;entryX=0.5;entryY=0;entryDx=0;entryDy=0;" parent="1" source="573" target="575" edge="1">
                    <mxGeometry relative="1" as="geometry"/>
                </mxCell>
                <mxCell id="578" style="edgeStyle=orthogonalEdgeStyle;rounded=1;html=1;entryX=0.5;entryY=0;entryDx=0;entryDy=0;" parent="1" source="573" target="576" edge="1">
                    <mxGeometry relative="1" as="geometry"/>
                </mxCell>
                <mxCell id="573" value="Later, family is having dinner. You discuss:" style="whiteSpace=wrap;html=1;fillColor=none;strokeColor=#F0F0F0;strokeWidth=1;" parent="1" vertex="1">
                    <mxGeometry x="500" y="2735" width="120" height="60" as="geometry"/>
                </mxCell>
                <mxCell id="581" style="edgeStyle=orthogonalEdgeStyle;rounded=1;html=1;entryX=0;entryY=0.5;entryDx=0;entryDy=0;" parent="1" source="575" target="580" edge="1">
                    <mxGeometry relative="1" as="geometry"/>
                </mxCell>
                <mxCell id="575" value="The jacuzzi. You want to see if it works. If it does, you'll have to get it cleaned up. Probably needs some strong cleaning supplies." style="whiteSpace=wrap;html=1;strokeColor=#F0F0F0;strokeWidth=1;fillColor=none;" parent="1" vertex="1">
                    <mxGeometry x="295" y="2880" width="260" height="60" as="geometry"/>
                </mxCell>
                <mxCell id="582" style="edgeStyle=orthogonalEdgeStyle;rounded=1;html=1;entryX=1;entryY=0.5;entryDx=0;entryDy=0;" parent="1" source="576" target="580" edge="1">
                    <mxGeometry relative="1" as="geometry"/>
                </mxCell>
                <mxCell id="576" value="Mom's book. Have she started working on it? No, not yet. What is it going to be about? She doesn't want to say yet, but she have several ideas." style="whiteSpace=wrap;html=1;strokeColor=#F0F0F0;strokeWidth=1;fillColor=none;" parent="1" vertex="1">
                    <mxGeometry x="600" y="2880" width="270" height="60" as="geometry"/>
                </mxCell>
                <mxCell id="579" value="Ideas for later:&lt;br&gt;- I have not thought about a washing machine. Place one somewhere! Maybe in the garage?&lt;br&gt;&lt;div&gt;&lt;span&gt;- Buy a new TV, so you can watch movies together.&lt;/span&gt;&lt;/div&gt;&lt;div&gt;&lt;span&gt;- In the morning, walk into bathroom and find B or L naked. Some heated words... (check planning for day 3)&lt;/span&gt;&lt;/div&gt;" style="whiteSpace=wrap;html=1;strokeColor=#F0F0F0;strokeWidth=1;fillColor=none;align=left;" parent="1" vertex="1">
                    <mxGeometry x="1190" y="4040" width="310" height="170" as="geometry"/>
                </mxCell>
                <mxCell id="584" value="" style="edgeStyle=orthogonalEdgeStyle;rounded=1;html=1;" parent="1" source="580" target="583" edge="1">
                    <mxGeometry relative="1" as="geometry"/>
                </mxCell>
                <mxCell id="580" value="More time for yourself. You sit in the lounge room for a while, and confirm that the TV doesn't work." style="whiteSpace=wrap;html=1;strokeColor=#F0F0F0;strokeWidth=1;fillColor=none;" parent="1" vertex="1">
                    <mxGeometry x="480" y="3050" width="200" height="60" as="geometry"/>
                </mxCell>
                <mxCell id="586" value="" style="edgeStyle=none;html=1;" parent="1" source="583" target="585" edge="1">
                    <mxGeometry relative="1" as="geometry"/>
                </mxCell>
                <mxCell id="583" value="It gets late and you all go to bed." style="whiteSpace=wrap;html=1;fillColor=none;strokeColor=#F0F0F0;strokeWidth=1;" parent="1" vertex="1">
                    <mxGeometry x="480" y="3190" width="200" height="50" as="geometry"/>
                </mxCell>
                <mxCell id="588" value="" style="edgeStyle=none;html=1;" parent="1" source="585" target="587" edge="1">
                    <mxGeometry relative="1" as="geometry"/>
                </mxCell>
                <mxCell id="585" value="Day 3, fixing the jacuzzi." style="whiteSpace=wrap;html=1;fillColor=#a20025;strokeColor=#6F0000;strokeWidth=1;fontColor=#ffffff;" parent="1" vertex="1">
                    <mxGeometry x="480" y="3315" width="200" height="60" as="geometry"/>
                </mxCell>
                <mxCell id="590" value="" style="edgeStyle=none;html=1;" parent="1" source="587" target="589" edge="1">
                    <mxGeometry relative="1" as="geometry"/>
                </mxCell>
                <mxCell id="587" value="While eating breakfast together, you bring up the jacuzzi, and that you are going to see if it works." style="whiteSpace=wrap;html=1;fillColor=none;strokeColor=#F0F0F0;strokeWidth=1;" parent="1" vertex="1">
                    <mxGeometry x="430" y="3455" width="300" height="60" as="geometry"/>
                </mxCell>
                <mxCell id="592" value="" style="edgeStyle=none;html=1;" parent="1" source="589" target="591" edge="1">
                    <mxGeometry relative="1" as="geometry"/>
                </mxCell>
                <mxCell id="589" value="Turns out, it doesn't work. But you spend basically the whole day trying to fix it. Possibly: You borrow the car, go into town and buy some tools and some cleaning materials for pools." style="whiteSpace=wrap;html=1;fillColor=none;strokeColor=#F0F0F0;strokeWidth=1;" parent="1" vertex="1">
                    <mxGeometry x="410" y="3595" width="340" height="60" as="geometry"/>
                </mxCell>
                <mxCell id="594" value="" style="edgeStyle=none;html=1;" parent="1" source="591" target="593" edge="1">
                    <mxGeometry relative="1" as="geometry"/>
                </mxCell>
                <mxCell id="591" value="Some time during the day, when you are working on the jacuzzi, B comes to talk to you. She has been running/excersising." style="whiteSpace=wrap;html=1;fillColor=none;strokeColor=#F0F0F0;strokeWidth=1;" parent="1" vertex="1">
                    <mxGeometry x="400" y="3735" width="360" height="60" as="geometry"/>
                </mxCell>
                <mxCell id="596" value="" style="edgeStyle=none;html=1;" parent="1" source="593" target="595" edge="1">
                    <mxGeometry relative="1" as="geometry"/>
                </mxCell>
                <mxCell id="593" value="Jokingly: &quot;I was kind of hoping you'd be done with the jacuzzi by now. I'd love to relax in it for a while after my run." style="rounded=1;whiteSpace=wrap;html=1;fillColor=none;strokeColor=#F0F0F0;strokeWidth=1;" parent="1" vertex="1">
                    <mxGeometry x="460" y="3875" width="240" height="60" as="geometry"/>
                </mxCell>
                <mxCell id="600" value="" style="edgeStyle=none;html=1;" parent="1" source="595" target="597" edge="1">
                    <mxGeometry relative="1" as="geometry"/>
                </mxCell>
                <mxCell id="595" value="&quot;Heh, you and me both. I think I'm getting close, I should get it to work shortly. After that, I'll have to fill it up and put in the cleaning fluids that I bought. It have to sit for 12 hours. And then tomorow, I wouldn't mind some help scrubbing it clean.&quot;" style="rounded=1;whiteSpace=wrap;html=1;fillColor=none;strokeColor=#F0F0F0;strokeWidth=1;" parent="1" vertex="1">
                    <mxGeometry x="430" y="4010" width="300" height="80" as="geometry"/>
                </mxCell>
                <mxCell id="602" value="" style="edgeStyle=none;html=1;" parent="1" source="597" target="601" edge="1">
                    <mxGeometry relative="1" as="geometry"/>
                </mxCell>
                <mxCell id="597" value="You do indeed get it to work. You fill it up with water and put in the cleaning fluids." style="whiteSpace=wrap;html=1;" parent="1" vertex="1">
                    <mxGeometry x="500" y="4150" width="160" height="60" as="geometry"/>
                </mxCell>
                <mxCell id="604" value="" style="edgeStyle=none;html=1;" parent="1" source="601" target="603" edge="1">
                    <mxGeometry relative="1" as="geometry"/>
                </mxCell>
                <mxCell id="601" value="You go inside to shower. Going through M's room, she is in there thinking about her book (taking a break to brainstorm)." style="whiteSpace=wrap;html=1;" parent="1" vertex="1">
                    <mxGeometry x="450" y="4290" width="260" height="60" as="geometry"/>
                </mxCell>
                <mxCell id="606" value="" style="edgeStyle=none;html=1;" parent="1" source="603" target="605" edge="1">
                    <mxGeometry relative="1" as="geometry"/>
                </mxCell>
                <mxCell id="603" value="When you are done, you've been thinking about checking out the lake. Ask if M want to come with you." style="whiteSpace=wrap;html=1;" parent="1" vertex="1">
                    <mxGeometry x="460" y="4430" width="240" height="60" as="geometry"/>
                </mxCell>
                <mxCell id="608" value="" style="edgeStyle=none;html=1;" parent="1" source="605" target="607" edge="1">
                    <mxGeometry relative="1" as="geometry"/>
                </mxCell>
                <mxCell id="605" value="No, not right now. But ask your sisters.&amp;nbsp;" style="rounded=1;whiteSpace=wrap;html=1;" parent="1" vertex="1">
                    <mxGeometry x="520" y="4570" width="120" height="60" as="geometry"/>
                </mxCell>
                <mxCell id="612" value="" style="edgeStyle=none;html=1;" parent="1" source="607" target="611" edge="1">
                    <mxGeometry relative="1" as="geometry"/>
                </mxCell>
                <mxCell id="607" value="You ask B and L if they want to come with you. They do. You all walk out together." style="whiteSpace=wrap;html=1;" parent="1" vertex="1">
                    <mxGeometry x="460" y="4710" width="240" height="60" as="geometry"/>
                </mxCell>
                <mxCell id="615" value="" style="edgeStyle=none;html=1;" parent="1" source="609" target="614" edge="1">
                    <mxGeometry relative="1" as="geometry"/>
                </mxCell>
                <mxCell id="609" value="You get to the lake, and explore. You find: a small boat by a bridge, a small house (sauna)." style="whiteSpace=wrap;html=1;" parent="1" vertex="1">
                    <mxGeometry x="450" y="5000" width="260" height="60" as="geometry"/>
                </mxCell>
                <mxCell id="613" value="" style="edgeStyle=none;html=1;" parent="1" source="611" target="609" edge="1">
                    <mxGeometry relative="1" as="geometry"/>
                </mxCell>
                <mxCell id="611" value="Possibly some dialogue. Fill out later." style="rounded=1;whiteSpace=wrap;html=1;" parent="1" vertex="1">
                    <mxGeometry x="520" y="4850" width="120" height="60" as="geometry"/>
                </mxCell>
                <mxCell id="617" value="" style="edgeStyle=none;html=1;" parent="1" source="614" target="616" edge="1">
                    <mxGeometry relative="1" as="geometry"/>
                </mxCell>
                <mxCell id="614" value="Later, you go back to the house. During dinner, you tell M about what you found." style="whiteSpace=wrap;html=1;" parent="1" vertex="1">
                    <mxGeometry x="460" y="5140" width="240" height="60" as="geometry"/>
                </mxCell>
                <mxCell id="619" value="" style="edgeStyle=none;html=1;" parent="1" source="616" target="618" edge="1">
                    <mxGeometry relative="1" as="geometry"/>
                </mxCell>
                <mxCell id="616" value="At evening, you start to feel a bit horny sort of out of nowhere. Like you kinda' want to jack off. Maybe, add a small scene where you see one of the others, tits or ass or something. You decide against doing anything and go to bed." style="whiteSpace=wrap;html=1;" parent="1" vertex="1">
                    <mxGeometry x="410" y="5280" width="340" height="70" as="geometry"/>
                </mxCell>
                <mxCell id="621" value="" style="edgeStyle=none;html=1;" parent="1" source="618" target="620" edge="1">
                    <mxGeometry relative="1" as="geometry"/>
                </mxCell>
                <mxCell id="618" value="Day 4: Jacuzzi done, first use" style="whiteSpace=wrap;html=1;fillColor=#a20025;fontColor=#ffffff;strokeColor=#6F0000;" parent="1" vertex="1">
                    <mxGeometry x="470" y="5435" width="220" height="60" as="geometry"/>
                </mxCell>
                <mxCell id="623" value="" style="edgeStyle=none;html=1;" parent="1" source="620" target="622" edge="1">
                    <mxGeometry relative="1" as="geometry"/>
                </mxCell>
                <mxCell id="620" value="Breakfast?" style="whiteSpace=wrap;html=1;" parent="1" vertex="1">
                    <mxGeometry x="520" y="5575" width="120" height="60" as="geometry"/>
                </mxCell>
                <mxCell id="625" value="" style="edgeStyle=none;html=1;" parent="1" source="622" target="624" edge="1">
                    <mxGeometry relative="1" as="geometry"/>
                </mxCell>
                <mxCell id="622" value="Cut to jacuzzi. Time to clean. B or L helping out?&amp;nbsp;" style="whiteSpace=wrap;html=1;" parent="1" vertex="1">
                    <mxGeometry x="520" y="5715" width="120" height="60" as="geometry"/>
                </mxCell>
                <mxCell id="636" value="" style="edgeStyle=none;html=1;" parent="1" source="624" target="630" edge="1">
                    <mxGeometry relative="1" as="geometry"/>
                </mxCell>
                <mxCell id="624" value="Maybe: Both B and L helps out initially, but after a while L goes off to take a run. (Timing?)" style="whiteSpace=wrap;html=1;" parent="1" vertex="1">
                    <mxGeometry x="430" y="5855" width="300" height="60" as="geometry"/>
                </mxCell>
                <mxCell id="639" value="" style="edgeStyle=none;html=1;" parent="1" source="628" target="638" edge="1">
                    <mxGeometry relative="1" as="geometry"/>
                </mxCell>
                <mxCell id="628" value="This is the first point where you start to feel a bit uneasy, finding your sisters attractive. Show some inner dialogue of looking at them." style="whiteSpace=wrap;html=1;" parent="1" vertex="1">
                    <mxGeometry x="450" y="6130" width="260" height="60" as="geometry"/>
                </mxCell>
                <mxCell id="637" value="" style="edgeStyle=none;html=1;" parent="1" source="630" target="628" edge="1">
                    <mxGeometry relative="1" as="geometry"/>
                </mxCell>
                <mxCell id="630" value="Alternative: You decide to try out the jacuzzi together. You shower, wait for L to come back and shower, then get M and tell her you have a surprise. Everybody changes into swimsuit." style="whiteSpace=wrap;html=1;" parent="1" vertex="1">
                    <mxGeometry x="410" y="5990" width="340" height="60" as="geometry"/>
                </mxCell>
                <mxCell id="641" value="" style="edgeStyle=none;html=1;" parent="1" source="638" target="640" edge="1">
                    <mxGeometry relative="1" as="geometry"/>
                </mxCell>
                <mxCell id="638" value="Jump to later afternoon, in your room. You want to masturbate, and start thinking about the girls (player choice?). You catch yourself and stop." style="whiteSpace=wrap;html=1;" parent="1" vertex="1">
                    <mxGeometry x="450" y="6270" width="260" height="60" as="geometry"/>
                </mxCell>
                <mxCell id="645" value="" style="edgeStyle=none;html=1;" parent="1" source="640" target="644" edge="1">
                    <mxGeometry relative="1" as="geometry"/>
                </mxCell>
                <mxCell id="640" value="Jump to dinner. M notices that you are a bit off, you try to brush it off or explain it away." style="whiteSpace=wrap;html=1;" parent="1" vertex="1">
                    <mxGeometry x="460" y="6375" width="240" height="50" as="geometry"/>
                </mxCell>
                <mxCell id="647" value="" style="edgeStyle=none;html=1;" parent="1" source="644" target="646" edge="1">
                    <mxGeometry relative="1" as="geometry"/>
                </mxCell>
                <mxCell id="644" value="Jump to evening, you give in and masturbate, thinking about (player choice)?" style="whiteSpace=wrap;html=1;" parent="1" vertex="1">
                    <mxGeometry x="450" y="6480" width="260" height="50" as="geometry"/>
                </mxCell>
                <mxCell id="649" value="" style="edgeStyle=none;html=1;" parent="1" source="646" target="648" edge="1">
                    <mxGeometry relative="1" as="geometry"/>
                </mxCell>
                <mxCell id="646" value="Day 5: ?" style="whiteSpace=wrap;html=1;fillColor=#a20025;fontColor=#ffffff;strokeColor=#6F0000;" parent="1" vertex="1">
                    <mxGeometry x="470" y="6590" width="220" height="60" as="geometry"/>
                </mxCell>
                <mxCell id="651" value="" style="edgeStyle=none;html=1;" parent="1" source="665" target="650" edge="1">
                    <mxGeometry relative="1" as="geometry"/>
                </mxCell>
                <mxCell id="671" value="" style="edgeStyle=none;html=1;" parent="1" source="648" target="660" edge="1">
                    <mxGeometry relative="1" as="geometry"/>
                </mxCell>
                <mxCell id="648" value="At breakfast: B is showing some cleavage, and you keep stealing glances." style="whiteSpace=wrap;html=1;" parent="1" vertex="1">
                    <mxGeometry x="450" y="6700" width="260" height="50" as="geometry"/>
                </mxCell>
                <mxCell id="653" value="" style="edgeStyle=none;html=1;" parent="1" source="650" target="652" edge="1">
                    <mxGeometry relative="1" as="geometry"/>
                </mxCell>
                <mxCell id="650" value="&quot;He seems absent-minded today. Wait, is he...? Is he looking at B/L's breasts?&quot;" style="rounded=1;whiteSpace=wrap;html=1;" parent="1" vertex="1">
                    <mxGeometry x="220" y="7100" width="230" height="40" as="geometry"/>
                </mxCell>
                <mxCell id="677" value="" style="edgeStyle=none;html=1;" parent="1" source="652" target="676" edge="1">
                    <mxGeometry relative="1" as="geometry"/>
                </mxCell>
                <mxCell id="652" value="M descretly tries to distract you, asking if you're feeling ok or similar, and start a conversation to take your mind off it." style="whiteSpace=wrap;html=1;" parent="1" vertex="1">
                    <mxGeometry x="175" y="7210" width="320" height="50" as="geometry"/>
                </mxCell>
                <mxCell id="672" style="edgeStyle=none;html=1;entryX=1;entryY=0.5;entryDx=0;entryDy=0;dashed=1;exitX=0;exitY=0.25;exitDx=0;exitDy=0;" parent="1" source="658" target="695" edge="1">
                    <mxGeometry relative="1" as="geometry"/>
                </mxCell>
                <mxCell id="658" value="M noticed you looking at B. Will lead to conversation between M and you, which eventually results in her wanting to &quot;help you with your problem&quot;, thus giving spark to the first sexual interaction." style="shape=process;whiteSpace=wrap;html=1;backgroundOutline=1;strokeColor=#3A5431;strokeWidth=1;fillColor=#6d8764;fontColor=#ffffff;" parent="1" vertex="1">
                    <mxGeometry x="890" y="7430" width="360" height="70" as="geometry"/>
                </mxCell>
                <mxCell id="662" value="" style="edgeStyle=none;html=1;" parent="1" source="660" target="661" edge="1">
                    <mxGeometry relative="1" as="geometry"/>
                </mxCell>
                <mxCell id="664" value="" style="edgeStyle=none;html=1;" parent="1" source="660" target="663" edge="1">
                    <mxGeometry relative="1" as="geometry"/>
                </mxCell>
                <mxCell id="660" value="Keep looking?" style="rhombus;whiteSpace=wrap;html=1;" parent="1" vertex="1">
                    <mxGeometry x="510" y="6840" width="140" height="100" as="geometry"/>
                </mxCell>
                <mxCell id="661" value="Keep looking at B/L breasts." style="whiteSpace=wrap;html=1;" parent="1" vertex="1">
                    <mxGeometry x="250" y="6860" width="170" height="60" as="geometry"/>
                </mxCell>
                <mxCell id="670" value="" style="edgeStyle=none;html=1;" parent="1" source="663" target="669" edge="1">
                    <mxGeometry relative="1" as="geometry"/>
                </mxCell>
                <mxCell id="663" value="Stop looking" style="whiteSpace=wrap;html=1;" parent="1" vertex="1">
                    <mxGeometry x="740" y="6860" width="120" height="60" as="geometry"/>
                </mxCell>
                <mxCell id="665" value="M notices, and steals glances at you to make sure. Yep, she sees you staring at B/L's breasts." style="whiteSpace=wrap;html=1;" parent="1" vertex="1">
                    <mxGeometry x="240" y="6980" width="190" height="60" as="geometry"/>
                </mxCell>
                <mxCell id="668" value="" style="edgeStyle=none;html=1;exitX=0.5;exitY=1;exitDx=0;exitDy=0;entryX=0.5;entryY=0;entryDx=0;entryDy=0;" parent="1" source="661" target="665" edge="1">
                    <mxGeometry relative="1" as="geometry">
                        <mxPoint x="345" y="7070" as="sourcePoint"/>
                        <mxPoint x="335" y="7000" as="targetPoint"/>
                    </mxGeometry>
                </mxCell>
                <mxCell id="701" style="edgeStyle=orthogonalEdgeStyle;html=1;exitX=0.5;exitY=1;exitDx=0;exitDy=0;entryX=1;entryY=0.5;entryDx=0;entryDy=0;" parent="1" source="669" target="674" edge="1">
                    <mxGeometry relative="1" as="geometry"/>
                </mxCell>
                <mxCell id="669" value="You finally stop yourself from looking. You are embaressed and a bit lost in thought." style="whiteSpace=wrap;html=1;" parent="1" vertex="1">
                    <mxGeometry x="710" y="7190" width="180" height="60" as="geometry"/>
                </mxCell>
                <mxCell id="709" value="" style="edgeStyle=orthogonalEdgeStyle;html=1;" parent="1" source="674" target="708" edge="1">
                    <mxGeometry relative="1" as="geometry"/>
                </mxCell>
                <mxCell id="674" value="Continue breakdast" style="whiteSpace=wrap;html=1;" parent="1" vertex="1">
                    <mxGeometry x="457.5" y="8090" width="260" height="60" as="geometry"/>
                </mxCell>
                <mxCell id="680" value="" style="edgeStyle=none;html=1;" parent="1" source="676" target="679" edge="1">
                    <mxGeometry relative="1" as="geometry"/>
                </mxCell>
                <mxCell id="682" value="" style="edgeStyle=none;html=1;" parent="1" source="676" target="681" edge="1">
                    <mxGeometry relative="1" as="geometry"/>
                </mxCell>
                <mxCell id="676" value="Keep looking?" style="rhombus;whiteSpace=wrap;html=1;" parent="1" vertex="1">
                    <mxGeometry x="265" y="7340" width="140" height="100" as="geometry"/>
                </mxCell>
                <mxCell id="694" style="edgeStyle=none;html=1;entryX=0;entryY=0.5;entryDx=0;entryDy=0;exitX=1;exitY=0.5;exitDx=0;exitDy=0;dashed=1;" parent="1" source="678" target="685" edge="1">
                    <mxGeometry relative="1" as="geometry"/>
                </mxCell>
                <mxCell id="678" value="L will remeber that you looks at B's breasts. Later in the story, L will ask you about it and whether you find hers too small. You get to make a choice that will affect L's breasts growth.&lt;br&gt;&lt;br&gt;Perhaps: Rather than a single choice, the game can track your preferences and at later stages that can affect yours and the girls development and changes." style="shape=process;whiteSpace=wrap;html=1;backgroundOutline=1;strokeColor=#3A5431;strokeWidth=1;fillColor=#6d8764;fontColor=#ffffff;" parent="1" vertex="1">
                    <mxGeometry x="-565" y="7805" width="380" height="140" as="geometry"/>
                </mxCell>
                <mxCell id="684" value="" style="edgeStyle=none;html=1;" parent="1" source="679" target="683" edge="1">
                    <mxGeometry relative="1" as="geometry"/>
                </mxCell>
                <mxCell id="679" value="You risk it and keep looking." style="whiteSpace=wrap;html=1;" parent="1" vertex="1">
                    <mxGeometry x="-20" y="7360" width="195" height="60" as="geometry"/>
                </mxCell>
                <mxCell id="696" value="" style="edgeStyle=none;html=1;" parent="1" source="681" target="695" edge="1">
                    <mxGeometry relative="1" as="geometry"/>
                </mxCell>
                <mxCell id="681" value="You restrain yourself and stop looking." style="whiteSpace=wrap;html=1;" parent="1" vertex="1">
                    <mxGeometry x="495" y="7360" width="185" height="60" as="geometry"/>
                </mxCell>
                <mxCell id="688" value="" style="edgeStyle=none;html=1;" parent="1" source="683" target="687" edge="1">
                    <mxGeometry relative="1" as="geometry"/>
                </mxCell>
                <mxCell id="683" value="Eventually, B notices you looking and asks you what you're looking at. You give a flustered answer." style="whiteSpace=wrap;html=1;" parent="1" vertex="1">
                    <mxGeometry x="-35" y="7500" width="225" height="60" as="geometry"/>
                </mxCell>
                <mxCell id="702" style="edgeStyle=orthogonalEdgeStyle;html=1;exitX=0.5;exitY=1;exitDx=0;exitDy=0;entryX=0;entryY=0.5;entryDx=0;entryDy=0;" parent="1" source="685" target="674" edge="1">
                    <mxGeometry relative="1" as="geometry"/>
                </mxCell>
                <mxCell id="685" value="You are embaressed. L understands the situation and makes a mental note of it." style="whiteSpace=wrap;html=1;" parent="1" vertex="1">
                    <mxGeometry x="-45" y="7945" width="245" height="50" as="geometry"/>
                </mxCell>
                <mxCell id="690" value="" style="edgeStyle=none;html=1;" parent="1" source="687" target="689" edge="1">
                    <mxGeometry relative="1" as="geometry"/>
                </mxCell>
                <mxCell id="687" value="&quot;Why do you keep looking at me? What are you looking at?&quot;" style="rounded=1;whiteSpace=wrap;html=1;" parent="1" vertex="1">
                    <mxGeometry x="-15" y="7620" width="185" height="50" as="geometry"/>
                </mxCell>
                <mxCell id="692" value="" style="edgeStyle=none;html=1;" parent="1" source="689" target="691" edge="1">
                    <mxGeometry relative="1" as="geometry"/>
                </mxCell>
                <mxCell id="689" value="&quot;Uh, what? No, I... I wasn't looking at you.&quot;" style="whiteSpace=wrap;html=1;rounded=1;" parent="1" vertex="1">
                    <mxGeometry x="-45" y="7730" width="245" height="45" as="geometry"/>
                </mxCell>
                <mxCell id="693" value="" style="edgeStyle=none;html=1;" parent="1" source="691" target="685" edge="1">
                    <mxGeometry relative="1" as="geometry"/>
                </mxCell>
                <mxCell id="691" value="Mockingly: &quot;Uh huh, sure you weren't. *smirk* Is that why your face is burning up?&quot;" style="whiteSpace=wrap;html=1;rounded=1;" parent="1" vertex="1">
                    <mxGeometry x="-45" y="7830" width="245" height="47.5" as="geometry"/>
                </mxCell>
                <mxCell id="703" style="edgeStyle=orthogonalEdgeStyle;html=1;exitX=0.5;exitY=1;exitDx=0;exitDy=0;entryX=0.5;entryY=0;entryDx=0;entryDy=0;" parent="1" source="695" target="674" edge="1">
                    <mxGeometry relative="1" as="geometry"/>
                </mxCell>
                <mxCell id="695" value="M makes a mental note of this.&amp;nbsp;" style="whiteSpace=wrap;html=1;" parent="1" vertex="1">
                    <mxGeometry x="527.5" y="7500" width="120" height="60" as="geometry"/>
                </mxCell>
                <mxCell id="698" style="edgeStyle=none;html=1;exitX=0;exitY=0.5;exitDx=0;exitDy=0;entryX=1;entryY=0.5;entryDx=0;entryDy=0;dashed=1;" parent="1" source="697" target="669" edge="1">
                    <mxGeometry relative="1" as="geometry"/>
                </mxCell>
                <mxCell id="697" value="Perhaps: Track a stat of how easiliy you get turned on. Looking away leads to &quot;less resistance&quot;, such that there is greater risk of&amp;nbsp; you getting aroused and girls discovering it.&lt;br&gt;&lt;br&gt;Alternatively: Track stat for self control, which could play part in some scenes, where you can withstand the girls trying to seduce you to get more out of the scene than otherwise." style="shape=process;whiteSpace=wrap;html=1;backgroundOutline=1;strokeColor=#3A5431;strokeWidth=1;fillColor=#6d8764;fontColor=#ffffff;" parent="1" vertex="1">
                    <mxGeometry x="1010" y="7090" width="320" height="150" as="geometry"/>
                </mxCell>
                <mxCell id="704" value="Later in story, B can reference this occurance, with e.g. &quot;You know, I really mind you looking at my tits. You're a guy, it's only normal that you like seeing tits.&quot;&lt;br&gt;... minor dialogue ...&lt;br&gt;Half jokingly: &quot;If you ever want to see 'em, just ask.&quot;&lt;br&gt;Decision: Ask vs Laugh it off." style="shape=process;whiteSpace=wrap;html=1;backgroundOutline=1;strokeColor=#3A5431;strokeWidth=1;fillColor=#6d8764;fontColor=#ffffff;" parent="1" vertex="1">
                    <mxGeometry x="-565" y="7660" width="380" height="100" as="geometry"/>
                </mxCell>
                <mxCell id="706" style="edgeStyle=none;html=1;entryX=0;entryY=0.5;entryDx=0;entryDy=0;exitX=1;exitY=0.5;exitDx=0;exitDy=0;dashed=1;" parent="1" source="704" target="691" edge="1">
                    <mxGeometry relative="1" as="geometry">
                        <mxPoint x="-160" y="7705" as="sourcePoint"/>
                        <mxPoint x="-20" y="7800" as="targetPoint"/>
                    </mxGeometry>
                </mxCell>
                <mxCell id="713" style="edgeStyle=none;html=1;exitX=0;exitY=0.5;exitDx=0;exitDy=0;entryX=1;entryY=0.5;entryDx=0;entryDy=0;dashed=1;" parent="1" source="707" target="708" edge="1">
                    <mxGeometry relative="1" as="geometry"/>
                </mxCell>
                <mxCell id="707" value="Ideas:&lt;br&gt;- Go to lake, swim and tan., Sauna. Excercise. Picnic? Make a day out of it.&lt;br&gt;&lt;div&gt;&lt;span&gt;- Go on hike in forest. Excersce.&lt;/span&gt;&lt;/div&gt;&lt;div&gt;&lt;span&gt;- Sports&lt;/span&gt;&lt;/div&gt;&lt;div&gt;&lt;span&gt;- Camping&lt;/span&gt;&lt;/div&gt;&lt;div&gt;&lt;span&gt;- Visit city:&lt;/span&gt;&lt;/div&gt;&lt;div&gt;&lt;span&gt;&amp;nbsp; &amp;nbsp;- Dance&lt;/span&gt;&lt;/div&gt;&lt;div&gt;&lt;span&gt;&amp;nbsp; &amp;nbsp;- Bar&lt;/span&gt;&lt;/div&gt;&lt;div&gt;&lt;span&gt;&amp;nbsp; &amp;nbsp;- Gym&lt;/span&gt;&lt;/div&gt;&lt;div&gt;&lt;span&gt;&amp;nbsp; &amp;nbsp;- Shopping&lt;/span&gt;&lt;/div&gt;&lt;div&gt;&lt;span&gt;&amp;nbsp; &amp;nbsp;- Arcade&lt;/span&gt;&lt;/div&gt;&lt;div&gt;&lt;span&gt;&amp;nbsp; &amp;nbsp;- Restaurant&lt;/span&gt;&lt;/div&gt;&lt;div&gt;&lt;span&gt;&amp;nbsp; &amp;nbsp;- Tandem bike around the city&lt;/span&gt;&lt;/div&gt;&lt;div&gt;&lt;span&gt;&amp;nbsp; &amp;nbsp;- Picnic&lt;/span&gt;&lt;/div&gt;" style="whiteSpace=wrap;html=1;align=left;fillColor=#6d8764;fontColor=#ffffff;strokeColor=#3A5431;" parent="1" vertex="1">
                    <mxGeometry x="910" y="8190" width="430" height="270" as="geometry"/>
                </mxCell>
                <mxCell id="711" value="" style="edgeStyle=orthogonalEdgeStyle;html=1;" parent="1" source="708" target="710" edge="1">
                    <mxGeometry relative="1" as="geometry"/>
                </mxCell>
                <mxCell id="708" value="Talk about what everyone has planned for the day. Decide on a day at the lake, with swimming, boat, sauna etc. Decide to leave in a few hours? Or at noon?" style="whiteSpace=wrap;html=1;" parent="1" vertex="1">
                    <mxGeometry x="457.5" y="8230" width="260" height="60" as="geometry"/>
                </mxCell>
                <mxCell id="717" value="" style="edgeStyle=none;html=1;" edge="1" parent="1" source="710" target="716">
                    <mxGeometry relative="1" as="geometry"/>
                </mxCell>
                <mxCell id="710" value="Finish breakdast" style="whiteSpace=wrap;html=1;" parent="1" vertex="1">
                    <mxGeometry x="457.5" y="8370" width="260" height="60" as="geometry"/>
                </mxCell>
                <mxCell id="741" style="edgeStyle=none;html=1;exitX=0;exitY=0.5;exitDx=0;exitDy=0;entryX=1;entryY=0.5;entryDx=0;entryDy=0;dashed=1;" edge="1" parent="1" source="742" target="739">
                    <mxGeometry relative="1" as="geometry"/>
                </mxCell>
                <mxCell id="730" value="" style="edgeStyle=none;html=1;" edge="1" parent="1" source="715" target="729">
                    <mxGeometry relative="1" as="geometry"/>
                </mxCell>
                <mxCell id="715" value="In the evening: Horny agaIn, have to masturbate. Dick has grown. Notices it but think its just imagination." style="whiteSpace=wrap;html=1;" vertex="1" parent="1">
                    <mxGeometry x="487.5" y="9460" width="200" height="70" as="geometry"/>
                </mxCell>
                <mxCell id="719" value="" style="edgeStyle=none;html=1;" edge="1" parent="1" source="716" target="718">
                    <mxGeometry relative="1" as="geometry"/>
                </mxCell>
                <mxCell id="716" value="Later: You are ready to go to the lake. You check in on M, who is working on her book. Ask if she's sure she doesn't want to take a break and join them. No, she stays." style="whiteSpace=wrap;html=1;" vertex="1" parent="1">
                    <mxGeometry x="455" y="8510" width="265" height="60" as="geometry"/>
                </mxCell>
                <mxCell id="721" value="" style="edgeStyle=none;html=1;" edge="1" parent="1" source="718" target="720">
                    <mxGeometry relative="1" as="geometry"/>
                </mxCell>
                <mxCell id="718" value="Go to the lake. Bring towels, food etc. Everyone brings swimsuits (or have them on under normal clothes?)" style="whiteSpace=wrap;html=1;" vertex="1" parent="1">
                    <mxGeometry x="455" y="8650" width="265" height="60" as="geometry"/>
                </mxCell>
                <mxCell id="723" value="" style="edgeStyle=none;html=1;" edge="1" parent="1" source="720" target="722">
                    <mxGeometry relative="1" as="geometry"/>
                </mxCell>
                <mxCell id="720" value="Make a whole day out of this, with much dialogue.&lt;br&gt;&lt;ul&gt;&lt;li&gt;Setting up towels etc. On bridge? Maybe add table/chairs to the area.&lt;/li&gt;&lt;li&gt;Chaning into swimsuits. Use the sauna, or just &quot;look away&quot;?&lt;/li&gt;&lt;li&gt;Tanning, sunblock lotion.&lt;/li&gt;&lt;li&gt;Reading a book that was brought.&lt;/li&gt;&lt;li&gt;Water bottles, hydrate.&lt;/li&gt;&lt;li&gt;Swimming together. Some &quot;sport&quot;, e.g. volleyball, beachball, tennisball or fresbee being trown. Throw a ball such that someone can jump off the bridge to catch it and land in the water. Diving or splashing into the water from the bridge. Playing &quot;pranks&quot;, e.g. diving under water and lifting a girl up on your shoulders. Girl pulling your pants down and running away with them, or you pulling a piece of swimsuit off.&lt;/li&gt;&lt;li&gt;Boat ride.&lt;/li&gt;&lt;li&gt;&quot;Photoshoot&quot;. Take pictures of the girls for their social medias.&lt;/li&gt;&lt;li&gt;Sauna together.&lt;/li&gt;&lt;li&gt;Maybe: Get too horny again, have to jerk off. Or, wait until evening?&lt;/li&gt;&lt;/ul&gt;" style="whiteSpace=wrap;html=1;align=left;" vertex="1" parent="1">
                    <mxGeometry x="285" y="8790" width="605" height="340" as="geometry"/>
                </mxCell>
                <mxCell id="725" value="" style="edgeStyle=none;html=1;" edge="1" parent="1" source="722" target="724">
                    <mxGeometry relative="1" as="geometry"/>
                </mxCell>
                <mxCell id="722" value="Finish day at lake. Go back to house." style="whiteSpace=wrap;html=1;align=center;" vertex="1" parent="1">
                    <mxGeometry x="475" y="9230" width="225" height="60" as="geometry"/>
                </mxCell>
                <mxCell id="728" value="" style="edgeStyle=none;html=1;" edge="1" parent="1" source="724" target="715">
                    <mxGeometry relative="1" as="geometry"/>
                </mxCell>
                <mxCell id="724" value="(Optionally) Dinner, talk to M about the lake day." style="whiteSpace=wrap;html=1;" vertex="1" parent="1">
                    <mxGeometry x="495" y="9350" width="185" height="60" as="geometry"/>
                </mxCell>
                <mxCell id="732" value="" style="edgeStyle=none;html=1;" edge="1" parent="1" source="729" target="731">
                    <mxGeometry relative="1" as="geometry"/>
                </mxCell>
                <mxCell id="729" value="Give player choice of what to imagine while jerking off. Give many options that steeer the fantasy, e.g.&lt;br&gt;&lt;ul&gt;&lt;li&gt;Who to fantasize about? B or L&lt;/li&gt;&lt;ul&gt;&lt;li&gt;Or perhaps, option for both of them. E.g. both wanting to suck you off, or them fighting over who gets to suck you off...&lt;/li&gt;&lt;li&gt;Or, choose one, have an option for exhibitionism, i.e. what if B/L sees us?&lt;/li&gt;&lt;/ul&gt;&lt;li&gt;Where and what activity? E.g. Sauna, tanning and putting on lotion, swimming&lt;/li&gt;&lt;li&gt;She turns around and shows her ass&lt;/li&gt;&lt;li&gt;She removed her top and shows her breasts&lt;/li&gt;&lt;li&gt;She kneels and begs to suck you off&lt;/li&gt;&lt;li&gt;She sits on your face&lt;/li&gt;&lt;/ul&gt;&lt;div&gt;These choices can affect your tracked stats for preferences etc.&lt;/div&gt;" style="whiteSpace=wrap;html=1;align=left;" vertex="1" parent="1">
                    <mxGeometry x="295" y="9600" width="585" height="230" as="geometry"/>
                </mxCell>
                <mxCell id="734" value="" style="edgeStyle=none;html=1;" edge="1" parent="1" source="731" target="733">
                    <mxGeometry relative="1" as="geometry"/>
                </mxCell>
                <mxCell id="731" value="Who?&lt;br&gt;..." style="rhombus;whiteSpace=wrap;html=1;" vertex="1" parent="1">
                    <mxGeometry x="547.5" y="9910" width="80" height="80" as="geometry"/>
                </mxCell>
                <mxCell id="736" value="" style="edgeStyle=none;html=1;" edge="1" parent="1" source="733" target="735">
                    <mxGeometry relative="1" as="geometry"/>
                </mxCell>
                <mxCell id="733" value="End the day." style="whiteSpace=wrap;html=1;" vertex="1" parent="1">
                    <mxGeometry x="527.5" y="10080" width="120" height="60" as="geometry"/>
                </mxCell>
                <mxCell id="738" value="" style="edgeStyle=none;html=1;" edge="1" parent="1" source="735" target="737">
                    <mxGeometry relative="1" as="geometry"/>
                </mxCell>
                <mxCell id="735" value="Day 6: ?" style="whiteSpace=wrap;html=1;fillColor=#a20025;fontColor=#ffffff;strokeColor=#6F0000;" vertex="1" parent="1">
                    <mxGeometry x="477.5" y="10220" width="220" height="60" as="geometry"/>
                </mxCell>
                <mxCell id="740" value="" style="edgeStyle=none;html=1;" edge="1" parent="1" source="737" target="739">
                    <mxGeometry relative="1" as="geometry"/>
                </mxCell>
                <mxCell id="737" value="Skip breakfast and morning routine. Volunteer to go shopping with M. Since its kind of far to town, you'll do grocery shopping for a week." style="whiteSpace=wrap;html=1;" vertex="1" parent="1">
                    <mxGeometry x="445" y="10340" width="285" height="60" as="geometry"/>
                </mxCell>
                <mxCell id="745" value="" style="edgeStyle=none;html=1;" edge="1" parent="1" source="739" target="744">
                    <mxGeometry relative="1" as="geometry"/>
                </mxCell>
                <mxCell id="739" value="You go out to the car and wait for M, when another car pulls up. You go over and meet the courier for the first time. Introduction etc." style="whiteSpace=wrap;html=1;" vertex="1" parent="1">
                    <mxGeometry x="445" y="10480" width="285" height="60" as="geometry"/>
                </mxCell>
                <mxCell id="742" value="&#10;&#10;&lt;span style=&quot;color: rgb(240, 240, 240); font-family: helvetica; font-size: 12px; font-style: normal; font-weight: 400; letter-spacing: normal; text-align: left; text-indent: 0px; text-transform: none; word-spacing: 0px; background-color: rgb(42, 42, 42); display: inline; float: none;&quot;&gt;Courier&lt;/span&gt;&lt;br style=&quot;color: rgb(240, 240, 240); font-family: helvetica; font-size: 12px; font-style: normal; font-weight: 400; letter-spacing: normal; text-align: left; text-indent: 0px; text-transform: none; word-spacing: 0px; background-color: rgb(42, 42, 42);&quot;&gt;&lt;span style=&quot;color: rgb(240, 240, 240); font-family: helvetica; font-size: 12px; font-style: normal; font-weight: 400; letter-spacing: normal; text-align: left; text-indent: 0px; text-transform: none; word-spacing: 0px; background-color: rgb(42, 42, 42); display: inline; float: none;&quot;&gt;Works as a bartender in the city. Courier is an extra gig during the day. Easy money, just driving and delivering stuff.&lt;/span&gt;&#10;&#10;" style="shape=process;whiteSpace=wrap;html=1;backgroundOutline=1;align=left;" vertex="1" parent="1">
                    <mxGeometry x="890" y="10410" width="290" height="80" as="geometry"/>
                </mxCell>
                <mxCell id="747" value="" style="edgeStyle=none;html=1;" edge="1" parent="1" source="744" target="746">
                    <mxGeometry relative="1" as="geometry"/>
                </mxCell>
                <mxCell id="744" value="M comes out you you drive to the city together. During the ride you and M talk." style="whiteSpace=wrap;html=1;" vertex="1" parent="1">
                    <mxGeometry x="445" y="10620" width="285" height="60" as="geometry"/>
                </mxCell>
                <mxCell id="749" value="Yes" style="edgeStyle=none;html=1;" edge="1" parent="1" source="746" target="748">
                    <mxGeometry relative="1" as="geometry"/>
                </mxCell>
                <mxCell id="751" value="No" style="edgeStyle=none;html=1;" edge="1" parent="1" source="746" target="750">
                    <mxGeometry relative="1" as="geometry"/>
                </mxCell>
                <mxCell id="746" value="Choice during day 5 breakfast. Did M see you looking at B's breasts?" style="shape=hexagon;perimeter=hexagonPerimeter2;whiteSpace=wrap;html=1;fixedSize=1;" vertex="1" parent="1">
                    <mxGeometry x="515" y="10760" width="145" height="80" as="geometry"/>
                </mxCell>
                <mxCell id="753" style="edgeStyle=orthogonalEdgeStyle;html=1;exitX=0.5;exitY=1;exitDx=0;exitDy=0;entryX=0;entryY=0.5;entryDx=0;entryDy=0;" edge="1" parent="1" source="748" target="752">
                    <mxGeometry relative="1" as="geometry"/>
                </mxCell>
                <mxCell id="748" value="M tries to talk to you about it, indirectly, by asking how you like it so far, how you think the girls like it, any problems that you're having etc." style="whiteSpace=wrap;html=1;" vertex="1" parent="1">
                    <mxGeometry x="140" y="10770" width="255" height="60" as="geometry"/>
                </mxCell>
                <mxCell id="754" style="edgeStyle=orthogonalEdgeStyle;html=1;exitX=0.5;exitY=1;exitDx=0;exitDy=0;entryX=1;entryY=0.5;entryDx=0;entryDy=0;" edge="1" parent="1" source="750" target="752">
                    <mxGeometry relative="1" as="geometry"/>
                </mxCell>
                <mxCell id="750" value="Simply skip this scene, or add something else?" style="whiteSpace=wrap;html=1;" vertex="1" parent="1">
                    <mxGeometry x="800" y="10770" width="120" height="60" as="geometry"/>
                </mxCell>
                <mxCell id="758" value="" style="edgeStyle=orthogonalEdgeStyle;html=1;" edge="1" parent="1" source="752" target="757">
                    <mxGeometry relative="1" as="geometry"/>
                </mxCell>
                <mxCell id="752" value="General small talk." style="whiteSpace=wrap;html=1;" vertex="1" parent="1">
                    <mxGeometry x="530" y="10940" width="120" height="60" as="geometry"/>
                </mxCell>
                <mxCell id="755" value="Explore the town a little, see what's there, before grocery shopping. Perhaps, go clothes shopping with M?" style="whiteSpace=wrap;html=1;" vertex="1" parent="1">
                    <mxGeometry x="430" y="11430" width="320" height="60" as="geometry"/>
                </mxCell>
                <mxCell id="760" value="" style="edgeStyle=orthogonalEdgeStyle;html=1;" edge="1" parent="1" source="757" target="759">
                    <mxGeometry relative="1" as="geometry"/>
                </mxCell>
                <mxCell id="757" value="During ride, M starts to fidget a bit with her bra. Seems irritated. Eventually, you ask her if something is wrong." style="whiteSpace=wrap;html=1;" vertex="1" parent="1">
                    <mxGeometry x="440" y="11080" width="300" height="60" as="geometry"/>
                </mxCell>
                <mxCell id="766" value="" style="edgeStyle=orthogonalEdgeStyle;html=1;" edge="1" parent="1" source="759" target="765">
                    <mxGeometry relative="1" as="geometry"/>
                </mxCell>
                <mxCell id="759" value="&quot;No, I'm fine. This bra just feels a bit tight, and is digging in on my side. It must have shrunk in the wash.&quot;" style="rounded=1;whiteSpace=wrap;html=1;" vertex="1" parent="1">
                    <mxGeometry x="480" y="11200" width="220" height="60" as="geometry"/>
                </mxCell>
                <mxCell id="767" value="" style="edgeStyle=orthogonalEdgeStyle;html=1;" edge="1" parent="1" source="765" target="755">
                    <mxGeometry relative="1" as="geometry"/>
                </mxCell>
                <mxCell id="765" value="General small talk." style="whiteSpace=wrap;html=1;" vertex="1" parent="1">
                    <mxGeometry x="530" y="11310" width="120" height="60" as="geometry"/>
                </mxCell>
                <mxCell id="769" style="edgeStyle=orthogonalEdgeStyle;html=1;exitX=0;exitY=0.5;exitDx=0;exitDy=0;entryX=1;entryY=0.5;entryDx=0;entryDy=0;strokeColor=none;" edge="1" parent="1" source="768" target="759">
                    <mxGeometry relative="1" as="geometry"/>
                </mxCell>
                <mxCell id="770" style="edgeStyle=none;html=1;exitX=0;exitY=0.5;exitDx=0;exitDy=0;entryX=1;entryY=0.5;entryDx=0;entryDy=0;strokeColor=default;dashed=1;" edge="1" parent="1" source="768" target="759">
                    <mxGeometry relative="1" as="geometry"/>
                </mxCell>
                <mxCell id="768" value="At this point, increase breasts size of the girls in all renders, just a little." style="shape=process;whiteSpace=wrap;html=1;backgroundOutline=1;fillColor=#f0a30a;fontColor=#000000;strokeColor=#BD7000;" vertex="1" parent="1">
                    <mxGeometry x="860" y="11170" width="220" height="60" as="geometry"/>
                </mxCell>
                <mxCell id="771" value="During ride home, M complains again about her tight bra. She excuses herself and removed her bra underneath her shirt. Some dialogue around this, and gives you opportunity to check out her breasts." style="whiteSpace=wrap;html=1;" vertex="1" parent="1">
                    <mxGeometry x="437.5" y="11810" width="300" height="60" as="geometry"/>
                </mxCell>
            </root>
        </mxGraphModel>
    </diagram>
</mxfile>